<svg width="18" height="18" viewBox="0 0 18 18" fill="none" xmlns="http://www.w3.org/2000/svg">
    <path
        d="M10.5 6.375C10.5 6.58211 10.3321 6.75 10.125 6.75C9.9179 6.75 9.75001 6.58211 9.75001 6.375M10.5 6.375C10.5 6.16789 10.3321 6 10.125 6C9.9179 6 9.75001 6.16789 9.75001 6.375M10.5 6.375L9.75001 6.375M14.25 11.2501L14.25 6.75007C14.7614 6.3665 15.0171 6.17471 15.2122 6.0998C16.0352 5.78367 16.952 6.24209 17.1929 7.09017C17.25 7.29113 17.25 7.61077 17.25 8.25004L17.25 9.75006C17.25 10.3893 17.25 10.709 17.1929 10.91C16.952 11.758 16.0352 12.2164 15.2122 11.9003C15.0171 11.8254 14.7614 11.6336 14.25 11.2501ZM7.5 15.75C5.87228 15.75 5.05842 15.75 4.3928 15.5623C2.71847 15.0901 1.40994 13.7815 0.937727 12.1072C0.750003 11.4416 0.750003 10.6277 0.750003 9C0.750003 7.37228 0.750003 6.55842 0.937727 5.8928C1.40994 4.21847 2.71847 2.90993 4.3928 2.43772C5.05842 2.25 5.87228 2.25 7.5 2.25C9.12773 2.25 9.94159 2.25 10.6072 2.43772C12.2815 2.90993 13.5901 4.21847 14.0623 5.8928C14.25 6.55842 14.25 7.37228 14.25 9C14.25 10.6277 14.25 11.4416 14.0623 12.1072C13.5901 13.7815 12.2815 15.0901 10.6072 15.5623C9.94159 15.75 9.12773 15.75 7.5 15.75Z"
        stroke="black" stroke-opacity="0.63" stroke-width="1.5" stroke-linecap="round"
        stroke-linejoin="round" />
</svg>