<svg width="18" height="18" viewBox="0 0 18 18" fill="none" xmlns="http://www.w3.org/2000/svg">
    <path
        d="M5.25 6H11.25M5.25 9H8.25M14.0374 15.7724C13.9384 15.713 13.8889 15.6833 13.8396 15.6552C13.119 15.2448 12.3076 15.0201 11.4786 15.0013C11.4218 15 11.3641 15 11.2487 15H8.25C6.62228 15 5.80842 15 5.1428 14.8123C3.46847 14.3401 2.15993 13.0315 1.68772 11.3572C1.5 10.6916 1.5 9.87772 1.5 8.25C1.5 6.62228 1.5 5.80842 1.68772 5.1428C2.15993 3.46847 3.46847 2.15993 5.1428 1.68772C5.80842 1.5 6.62228 1.5 8.25 1.5H9C11.3297 1.5 12.4946 1.5 13.4134 1.8806C14.6386 2.38807 15.6119 3.36144 16.1194 4.58658C16.5 5.50544 16.5 6.67029 16.5 9V14.3781C16.5 14.5709 16.5 14.6673 16.4941 14.7336C16.4011 15.7795 15.2899 16.4086 14.3452 15.9503C14.2853 15.9212 14.2027 15.8716 14.0374 15.7724Z"
        stroke="#2F384C" stroke-width="1.5" stroke-linecap="round" stroke-linejoin="round" />
</svg>